<svg version="1.1" id="Layer_1" xmlns="http://www.w3.org/2000/svg" xmlns:xlink="http://www.w3.org/1999/xlink" x="0px" y="0px"
	 width="100%" viewBox="0 0 180 180" enable-background="new 0 0 180 180" xml:space="preserve">
<path fill="#219DEE" opacity="1.000000" stroke="none" 
	d="
M1.000000,32.000000 
	C1.000000,24.979052 1.000000,17.958103 1.238462,10.802073 
	C3.519630,8.419793 5.576207,6.184977 7.598384,3.919455 
	C8.436817,2.980127 9.201680,1.975132 10.000000,1.000000 
	C63.687561,1.000000 117.375122,1.000000 171.200348,1.240515 
	C173.817291,3.766012 176.283264,6.065725 178.784576,8.326339 
	C179.468567,8.944516 180.258621,9.445332 181.000000,10.000002 
	C181.000000,26.354227 181.000000,42.708454 180.726105,59.756050 
	C179.228088,63.313965 178.003967,66.178513 176.599304,69.465591 
	C173.182236,68.110031 170.197861,66.622276 167.040222,65.799408 
	C165.418274,65.376732 162.202133,65.709839 161.952759,66.454071 
	C161.361877,68.217560 161.418900,70.957993 162.473923,72.345650 
	C164.334625,74.793053 166.894531,76.965973 169.603149,78.445915 
	C172.918472,80.257339 173.160461,82.406578 172.583344,85.773750 
	C171.376785,92.813339 170.673843,99.941788 169.855637,107.044289 
	C169.460129,110.477654 169.271713,113.934875 169.020920,116.997993 
	C163.308044,117.384636 157.975143,117.334694 152.791290,118.189064 
	C144.206604,119.603928 139.676910,125.418091 139.833527,133.868317 
	C140.000977,142.902237 144.987122,148.794861 153.641632,150.070297 
	C163.991165,151.595535 173.041870,148.627304 181.000000,142.000000 
	C181.000000,151.687561 181.000000,161.375122 180.771454,171.185516 
	C178.258621,173.793640 175.960251,176.266251 173.699127,178.772476 
	C173.075684,179.463486 172.563324,180.254730 172.000000,181.000000 
	C118.312439,181.000000 64.624878,181.000000 10.810102,180.767914 
	C8.431211,178.489426 6.191908,176.429138 3.921903,174.403244 
	C2.981796,173.564224 1.975952,172.798859 1.000000,172.000000 
	C1.000000,165.312363 1.000000,158.624710 1.423731,151.469910 
	C8.286942,149.469223 15.002938,148.641098 21.105776,146.248795 
	C32.280895,141.868118 40.289257,133.897034 41.839077,121.515114 
	C43.507767,108.183464 39.441395,96.845726 27.650919,89.147888 
	C26.436651,88.355103 25.300123,87.443245 23.925610,86.439148 
	C24.828272,85.796898 25.489586,85.314201 26.162994,84.849014 
	C44.662750,72.069626 43.316540,46.840408 23.033079,37.087330 
	C16.405630,33.900597 8.384013,33.613308 1.000000,32.000000 
M129.605087,102.213982 
	C136.649841,98.575203 141.752518,92.927284 145.649429,86.196999 
	C156.795227,66.947296 149.492859,43.968060 128.895218,36.041813 
	C108.245949,28.095695 87.977005,29.851002 69.356880,42.439068 
	C65.760719,44.870239 63.120911,48.778416 60.258072,52.188389 
	C59.535606,53.048927 59.049587,55.307796 59.513031,55.712555 
	C60.456676,56.536713 62.298054,57.116108 63.454231,56.763248 
	C66.605370,55.801537 69.689468,54.491302 72.627396,52.982750 
	C83.940361,47.173847 95.797142,44.997303 108.416046,47.007607 
	C117.031784,48.380173 124.540306,53.651352 125.232689,61.087067 
	C125.878479,68.022339 125.231827,75.362885 123.590569,82.146767 
	C121.919838,89.052483 116.227600,92.985603 109.179962,94.492416 
	C105.927147,95.187881 102.604767,95.639427 99.433983,96.598473 
	C98.095337,97.003365 96.256645,98.322083 96.107086,99.423851 
	C95.930824,100.722305 96.992310,102.724380 98.142288,103.540894 
	C99.838936,104.745544 102.034706,105.598625 104.110458,105.856522 
	C112.642715,106.916588 121.078209,106.707497 129.605087,102.213982 
M86.489418,117.094536 
	C88.130676,107.280663 89.938934,97.490974 91.365402,87.645981 
	C92.743408,78.135475 93.811981,68.576614 94.796074,59.016300 
	C94.946548,57.554405 94.148048,54.849682 93.367737,54.682411 
	C91.876198,54.362671 89.564606,54.958435 88.510986,56.055504 
	C85.442337,59.250671 82.095993,62.515636 80.154007,66.400764 
	C69.022575,88.670158 62.713974,112.301590 62.083176,137.240723 
	C61.755764,150.185120 64.655533,152.174774 77.200874,149.113464 
	C83.008919,147.696198 84.879501,145.387268 85.187355,139.429016 
	C85.556213,132.289917 85.983452,125.153847 86.489418,117.094536 
z"/>
<path fill="#FCFEFF" opacity="1.000000" stroke="none" 
	d="
M1.000000,32.466862 
	C8.384013,33.613308 16.405630,33.900597 23.033079,37.087330 
	C43.316540,46.840408 44.662750,72.069626 26.162994,84.849014 
	C25.489586,85.314201 24.828272,85.796898 23.925610,86.439148 
	C25.300123,87.443245 26.436651,88.355103 27.650919,89.147888 
	C39.441395,96.845726 43.507767,108.183464 41.839077,121.515114 
	C40.289257,133.897034 32.280895,141.868118 21.105776,146.248795 
	C15.002938,148.641098 8.286942,149.469223 1.423731,151.001373 
	C1.000000,145.977905 1.000000,140.955811 1.356573,135.413055 
	C9.115621,132.340637 14.845929,127.790993 15.821351,119.737968 
	C16.465958,114.416138 16.068325,108.739990 14.937369,103.480499 
	C12.837575,93.715424 10.698717,92.604210 1.000000,94.000000 
	C1.000000,89.310745 1.000000,84.621490 1.417972,79.430557 
	C6.794768,79.300560 12.329958,80.283867 13.254990,73.229050 
	C13.913880,68.203979 14.358644,62.950947 13.610814,57.993980 
	C12.755310,52.323311 7.078015,48.478268 1.000000,48.000000 
	C1.000000,42.977909 1.000000,37.955814 1.000000,32.466862 
z"/>
<path fill="#FBFDFF" opacity="1.000000" stroke="none" 
	d="
M181.000000,141.531342 
	C173.041870,148.627304 163.991165,151.595535 153.641632,150.070297 
	C144.987122,148.794861 140.000977,142.902237 139.833527,133.868317 
	C139.676910,125.418091 144.206604,119.603928 152.791290,118.189064 
	C157.975143,117.334694 163.308044,117.384636 169.020920,116.997993 
	C169.271713,113.934875 169.460129,110.477654 169.855637,107.044289 
	C170.673843,99.941788 171.376785,92.813339 172.583344,85.773750 
	C173.160461,82.406578 172.918472,80.257339 169.603149,78.445915 
	C166.894531,76.965973 164.334625,74.793053 162.473923,72.345650 
	C161.418900,70.957993 161.361877,68.217560 161.952759,66.454071 
	C162.202133,65.709839 165.418274,65.376732 167.040222,65.799408 
	C170.197861,66.622276 173.182236,68.110031 176.599304,69.465591 
	C178.003967,66.178513 179.228088,63.313965 180.726105,60.224709 
	C181.000000,87.020897 181.000000,114.041786 181.000000,141.531342 
M159.747925,129.703140 
	C156.686966,129.995178 154.196152,131.463821 155.211700,134.681824 
	C155.707596,136.253143 158.420013,137.915665 160.277252,138.108170 
	C164.643799,138.560776 167.420776,136.293121 167.930420,131.072342 
	C165.385666,130.567932 162.999771,130.095016 159.747925,129.703140 
z"/>
<path fill="#239DEE" opacity="1.000000" stroke="none" 
	d="
M1.000000,94.468658 
	C10.698717,92.604210 12.837575,93.715424 14.937369,103.480499 
	C16.068325,108.739990 16.465958,114.416138 15.821351,119.737968 
	C14.845929,127.790993 9.115621,132.340637 1.356573,134.946198 
	C1.000000,121.645775 1.000000,108.291542 1.000000,94.468658 
z"/>
<path fill="#259EEE" opacity="1.000000" stroke="none" 
	d="
M1.000000,48.468658 
	C7.078015,48.478268 12.755310,52.323311 13.610814,57.993980 
	C14.358644,62.950947 13.913880,68.203979 13.254990,73.229050 
	C12.329958,80.283867 6.794768,79.300560 1.417972,78.964439 
	C1.000000,68.979103 1.000000,58.958210 1.000000,48.468658 
z"/>
<path fill="#000000" opacity="1.000000" stroke="none" 
	d="
M9.508951,1.000000 
	C9.201680,1.975132 8.436817,2.980127 7.598384,3.919455 
	C5.576207,6.184977 3.519630,8.419793 1.238462,10.333496 
	C1.000000,7.082645 1.000000,4.165290 1.000000,1.000000 
	C3.670005,1.000000 6.343954,1.000000 9.508951,1.000000 
z"/>
<path fill="#000000" opacity="1.000000" stroke="none" 
	d="
M181.000000,9.508954 
	C180.258621,9.445332 179.468567,8.944516 178.784576,8.326339 
	C176.283264,6.065725 173.817291,3.766012 171.669006,1.240515 
	C174.917358,1.000000 177.834702,1.000000 181.000000,1.000000 
	C181.000000,3.670005 181.000000,6.343954 181.000000,9.508954 
z"/>
<path fill="#000000" opacity="1.000000" stroke="none" 
	d="
M1.000000,172.491058 
	C1.975952,172.798859 2.981796,173.564224 3.921903,174.403244 
	C6.191908,176.429138 8.431211,178.489426 10.341444,180.767914 
	C7.082646,181.000000 4.165292,181.000000 1.000000,181.000000 
	C1.000000,178.330002 1.000000,175.656052 1.000000,172.491058 
z"/>
<path fill="#000000" opacity="1.000000" stroke="none" 
	d="
M172.491043,181.000000 
	C172.563324,180.254730 173.075684,179.463486 173.699127,178.772476 
	C175.960251,176.266251 178.258621,173.793640 180.771454,171.654175 
	C181.000000,174.917358 181.000000,177.834702 181.000000,181.000000 
	C178.330002,181.000000 175.656052,181.000000 172.491043,181.000000 
z"/>
<path fill="#FBFDFF" opacity="1.000000" stroke="none" 
	d="
M129.286789,102.413345 
	C121.078209,106.707497 112.642715,106.916588 104.110458,105.856522 
	C102.034706,105.598625 99.838936,104.745544 98.142288,103.540894 
	C96.992310,102.724380 95.930824,100.722305 96.107086,99.423851 
	C96.256645,98.322083 98.095337,97.003365 99.433983,96.598473 
	C102.604767,95.639427 105.927147,95.187881 109.179962,94.492416 
	C116.227600,92.985603 121.919838,89.052483 123.590569,82.146767 
	C125.231827,75.362885 125.878479,68.022339 125.232689,61.087067 
	C124.540306,53.651352 117.031784,48.380173 108.416046,47.007607 
	C95.797142,44.997303 83.940361,47.173847 72.627396,52.982750 
	C69.689468,54.491302 66.605370,55.801537 63.454231,56.763248 
	C62.298054,57.116108 60.456676,56.536713 59.513031,55.712555 
	C59.049587,55.307796 59.535606,53.048927 60.258072,52.188389 
	C63.120911,48.778416 65.760719,44.870239 69.356880,42.439068 
	C87.977005,29.851002 108.245949,28.095695 128.895218,36.041813 
	C149.492859,43.968060 156.795227,66.947296 145.649429,86.196999 
	C141.752518,92.927284 136.649841,98.575203 129.286789,102.413345 
z"/>
<path fill="#FBFDFF" opacity="1.000000" stroke="none" 
	d="
M86.437416,117.555496 
	C85.983452,125.153847 85.556213,132.289917 85.187355,139.429016 
	C84.879501,145.387268 83.008919,147.696198 77.200874,149.113464 
	C64.655533,152.174774 61.755764,150.185120 62.083176,137.240723 
	C62.713974,112.301590 69.022575,88.670158 80.154007,66.400764 
	C82.095993,62.515636 85.442337,59.250671 88.510986,56.055504 
	C89.564606,54.958435 91.876198,54.362671 93.367737,54.682411 
	C94.148048,54.849682 94.946548,57.554405 94.796074,59.016300 
	C93.811981,68.576614 92.743408,78.135475 91.365402,87.645981 
	C89.938934,97.490974 88.130676,107.280663 86.437416,117.555496 
z"/>
<path fill="#279FEF" opacity="1.000000" stroke="none" 
	d="
M160.180908,129.662628 
	C162.999771,130.095016 165.385666,130.567932 167.930420,131.072342 
	C167.420776,136.293121 164.643799,138.560776 160.277252,138.108170 
	C158.420013,137.915665 155.707596,136.253143 155.211700,134.681824 
	C154.196152,131.463821 156.686966,129.995178 160.180908,129.662628 
z"/>
</svg>